# xmcd CD database file
#
# Track frame offsets:
#	150
#	6030
#	18837
#	31420
#	45145
#	59450
#	73710
#	87517
#	98620
#	112370
#	125787
#	138457
#	151420
#	165280
#	177860
#	191395
#	204172
#	232185
#	244437
#	258487
#	272482
#	285910
#
# Disc length: 4169 seconds
#
# Revision: 0
# Processed by: cddbd v1.5.2PL0 Copyright (c) Steve Scherf et al.
# Submitted via: CDex 1.70beta1
#
DISCID=2c104716
DTITLE=Carroll Gibbons - Carroll Gibbons with the Savoy Hotel Orpheans
DYEAR=1900
DGENRE=British Dance Bands
TTITLE0=On the Air
TTITLE1=Sweet as a Song
TTITLE2=With Thee I Swing
TTITLE3=Let Me Give My Happiness to You [From "Good Companions"][Medley]
TTITLE4=Three Wishes
TTITLE5=I Need You
TTITLE6=The Certain Age/You're as Pretty as a Picture/My Own/Be a Good Scout
TTITLE7=Moonbeam Dance [From Rookery Nook][Medley]
TTITLE8=When Anybody Plays or Sings
TTITLE9=Every Woman Thinks
TTITLE10=Cabin in the Cotton
TTITLE11=On the Air
TTITLE12=Living in Dreams
TTITLE13=Oo! That Kiss
TTITLE14=The Gay Impostors/I Wanna Go Back to Bali/Day Dreaming/The Latin Quarter [S
TTITLE15=Isn't It Romantic?
TTITLE16=Remember?/Carroll Gibbons Medley/You Forgot to Remember/My Heart Stood
TTITLE17=Any Broken Hearts to Mend?
TTITLE18=Tomorrow Is Another Day
TTITLE19=Bubbling Over
TTITLE20=Goodbye to Summer
TTITLE21=Shall We Dance?/They Can't Take That Away from Me/Slap That Bass ... [S
EXTD=
EXTT0=
EXTT1=
EXTT2=
EXTT3=
EXTT4=
EXTT5=
EXTT6=
EXTT7=
EXTT8=
EXTT9=
EXTT10=
EXTT11=
EXTT12=
EXTT13=
EXTT14=
EXTT15=
EXTT16=
EXTT17=
EXTT18=
EXTT19=
EXTT20=
EXTT21=
PLAYORDER=
